<?xml version="1.0"?>
<svg width="64" height="64" xmlns="http://www.w3.org/2000/svg" xmlns:svg="http://www.w3.org/2000/svg" preserveAspectRatio="xMidYMid meet" version="1.0">
 <g class="layer">
  <title>Layer 1</title>
  <g fill="currentColor" id="svg_1" transform="translate(0 64) matrix(0.1 0 0 -0.1 0 0)">
   <path d="m261,629c-149,-30 -254,-157 -254,-309c0,-89 28,-156 92,-221c65,-64 132,-92 221,-92c89,0 156,28 221,92c64,65 92,132 92,221c0,196 -182,348 -372,309zm137,-126c78,-58 92,-137 42,-232c-37,-68 -118,-173 -131,-169c-16,5 -98,121 -129,182c-17,33 -30,72 -30,88c0,57 51,127 110,151c29,12 111,0 138,-20z" id="svg_2"/>
   <path d="m282,440c-63,-26 -37,-130 33,-130c22,0 65,45 65,68c0,44 -55,79 -98,62z" id="svg_3"/>
  </g>
 </g>
</svg>